<?xml version="1.0" encoding="utf-8"?>
<!-- Generator: Adobe Illustrator 26.5.2, SVG Export Plug-In . SVG Version: 6.00 Build 0)  -->
<svg version="1.1" id="Capa_1" xmlns="http://www.w3.org/2000/svg" xmlns:xlink="http://www.w3.org/1999/xlink" x="0px" y="0px"
	 viewBox="0 0 346.87 340.03" style="enable-background:new 0 0 346.87 340.03;" xml:space="preserve">
<style type="text/css">
	.st0{fill:#FFFFFF;}
</style>
<g>
	<path d="M0,26.94c16.49,0,32.99-0.02,49.48,0c7.57,0.01,12.06,3.53,13.7,10.88C66.78,54,70.32,70.2,73.9,86.39
		c0.26,1.19,0.59,2.36,0.91,3.62c11.54,0,22.9,0,34.58,0c0.72-29.25,11.97-53.29,35.03-71.36C160.74,5.85,179.5-0.07,200.15,0
		c44.43,0.15,88.72,37.22,88.42,89.99c1.17,0.06,2.36,0.19,3.55,0.19c13.44,0.01,26.89-0.01,40.33,0.01
		c11.02,0.02,16.4,6.91,13.74,17.52c-9.68,38.73-19.36,77.46-29.03,116.19c-2.14,8.55-6.27,11.77-15.17,11.77
		c-69.47,0-138.95,0-208.42,0c-9.13,0-12.92-3.07-14.84-11.94c-12.26-56.43-24.53-112.86-36.8-169.29c-0.21-0.97-0.53-1.91-0.86-3.1
		c-13.76,0-27.41,0-41.07,0C0,43.21,0,35.08,0,26.94z M199.34,24.48c-36.29,0-64.76,28.92-65.32,64.13
		c-0.56,35.32,27.82,64.83,63.7,65.73c35.15,0.88,65.07-27.91,66.03-63.53C264.71,54.78,236.18,25.39,199.34,24.48z"/>
	<path d="M253.61,255.07c23.38,0.17,42.48,19.31,42.46,42.55c-0.02,23.26-19.3,42.46-42.59,42.4
		c-23.33-0.06-42.62-19.42-42.41-42.56C211.29,273.89,230.35,254.9,253.61,255.07z"/>
	<path d="M122.44,339.74c-23.43-0.54-42.18-19.69-41.6-42.51c0.59-23.42,19.84-42.2,42.59-41.58c23.69,0.65,42.07,19.66,41.47,42.91
		C164.32,321.81,145.29,340.26,122.44,339.74z"/>
</g>
<g>
	<path d="M150.46,89.62c1.41-1.4,2.77-2.82,4.2-4.17c3.01-2.84,6.23-5.43,9.59-7.83c3.27-2.33,6.68-4.44,10.25-6.27
		c3.47-1.78,7.05-3.28,10.78-4.41c3.68-1.11,7.43-1.85,11.27-2.12c5.09-0.36,10.09,0.15,15.02,1.4c3.8,0.96,7.47,2.33,11.03,4
		c6.13,2.88,11.75,6.54,17.01,10.77c3.2,2.57,6.24,5.32,9.05,8.32c0.09,0.1,0.18,0.2,0.31,0.35c-0.68,0.7-1.35,1.41-2.04,2.1
		c-3.93,3.91-8.18,7.43-12.74,10.59c-3.22,2.24-6.58,4.27-10.1,6c-2.77,1.37-5.62,2.58-8.56,3.55c-5.57,1.83-11.27,2.84-17.14,2.66
		c-5.08-0.15-10.01-1.14-14.82-2.77c-5.38-1.82-10.41-4.35-15.2-7.37c-4.47-2.82-8.68-6-12.58-9.57c-1.67-1.53-3.26-3.15-4.89-4.74
		C150.75,89.97,150.62,89.8,150.46,89.62z M200.14,72.25c-9.53-0.19-17.42,7.13-17.79,16.71c-0.38,9.67,7.1,17.55,16.46,18.02
		c9.78,0.49,17.87-7.06,18.26-16.64C217.46,80.62,209.92,72.6,200.14,72.25z"/>
	<path d="M199.7,101.91c-6.75,0-12.24-5.48-12.25-12.24c-0.01-6.81,5.45-12.3,12.23-12.3c6.83,0,12.34,5.52,12.29,12.34
		C211.93,96.45,206.45,101.9,199.7,101.91z M204.16,83.12c-0.02-2.49-2.02-4.48-4.48-4.46c-2.45,0.02-4.42,2.02-4.41,4.47
		c0.01,2.45,2.01,4.44,4.46,4.44C202.16,87.57,204.18,85.54,204.16,83.12z"/>
</g>
</svg>
